# xmcd
#
# Track frame offsets:
#	150
#	13375
#	28726
#	41243
#	58617
#	72185
#	81002
#	96346
#	110747
#	122703
#	132841
#	146267
#
# Disc length: 2173 seconds
#
# Revision: 2
# Processed by: cddbd v1.5.1PL2 Copyright (c) Steve Scherf et al.
# Submitted via: audiograbber 1.83.01
#
DISCID=ac087b0c
DTITLE=Βαγγέλης Γερμανός - Το μαγικό νησί
DYEAR=2005
DGENRE=Εντεχνο
TTITLE0=Βαρδα φουρνελο ρουμπα
TTITLE1=Το μαγικο νησι
TTITLE2=Στα καστρα κατω απ' τ' αστρα
TTITLE3=Οι μπαμπουϊνοι
TTITLE4=Ρουμπα σ' ενα βαρκακι
TTITLE5=Χρυσουλα μωρο μου
TTITLE6=Μεσ' του φεγγαριου το δισκο
TTITLE7=Μου τα' χεις θαλασσωσει
TTITLE8=Μοναχουλα
TTITLE9=Γατος με καρδια σκυλου
TTITLE10=Ο τελευταιος παραδεισος
TTITLE11=Ψαρακι εξω απ' το νερο
EXTD=
EXTT0=
EXTT1=
EXTT2=
EXTT3=
EXTT4=
EXTT5=
EXTT6=
EXTT7=
EXTT8=
EXTT9=
EXTT10=
EXTT11=
PLAYORDER=
